<svg id="Rectangle_1_Imported_Layers" data-name="Rectangle 1 + Imported Layers" xmlns="http://www.w3.org/2000/svg" width="150" height="42.857" viewBox="0 0 150 42.857">
  <g id="Rectangle_1" data-name="Rectangle 1" fill="none" stroke="#014d97" stroke-miterlimit="10" stroke-width="2">
    <rect width="150" height="42.857" rx="10" stroke="none"/>
    <rect x="1" y="1" width="148" height="40.857" rx="9" fill="none"/>
  </g>
  <path id="Imported_Layers" data-name="Imported Layers" d="M14.963,23.987a3.658,3.658,0,0,1-1.732-.43,4.959,4.959,0,0,0-2.4-.546,5.651,5.651,0,0,0-2.387.535l-.005,0,0,0-.005,0-.005,0a4.508,4.508,0,0,1-1.777.433c-1.369,0-3.017-1.4-4.407-3.741A15.563,15.563,0,0,1,0,12.713C0,7.638,3.606,5.356,6.166,5.356A5.824,5.824,0,0,1,8.725,6l.022.009a4.867,4.867,0,0,0,2.055.554,4.7,4.7,0,0,0,1.82-.5l.031-.012.005,0a6.7,6.7,0,0,1,2.767-.688c2.811,0,4.619,2.662,4.637,2.689l-.006,0A5.833,5.833,0,0,0,18.641,9.23,5.25,5.25,0,0,0,17.3,12.713a4.965,4.965,0,0,0,1.719,3.849,5.534,5.534,0,0,0,1.746,1.046l-.005.015A22.357,22.357,0,0,1,19.018,20.8C18.043,22.252,16.549,23.987,14.963,23.987Zm42.012-.837h-1.56l0-12.894h1.562V11.52h.037a2.338,2.338,0,0,1,1.213-1.129,4.68,4.68,0,0,1,1.819-.352,4.394,4.394,0,0,1,1.92.4,3.922,3.922,0,0,1,1.36,1.075,4.744,4.744,0,0,1,.817,1.561,6.224,6.224,0,0,1,.276,1.878,6.6,6.6,0,0,1-.266,1.878,4.417,4.417,0,0,1-.809,1.544,3.821,3.821,0,0,1-1.359,1.039,4.5,4.5,0,0,1-1.9.38,4.77,4.77,0,0,1-1.635-.308,3.4,3.4,0,0,1-.8-.442,2.51,2.51,0,0,1-.634-.7h-.037v4.8Zm2.848-11.757a2.749,2.749,0,0,0-1.342.307,2.7,2.7,0,0,0-.9.8,3.345,3.345,0,0,0-.5,1.129,5.5,5.5,0,0,0-.157,1.283,5.308,5.308,0,0,0,.166,1.327,3.238,3.238,0,0,0,.524,1.129,2.677,2.677,0,0,0,.928.786,2.926,2.926,0,0,0,1.378.3,2.724,2.724,0,0,0,1.35-.307,2.5,2.5,0,0,0,.873-.813,3.525,3.525,0,0,0,.478-1.156,6.13,6.13,0,0,0,.147-1.336,4.621,4.621,0,0,0-.175-1.273,3.4,3.4,0,0,0-.533-1.111,2.605,2.605,0,0,0-.918-.777A2.848,2.848,0,0,0,59.823,11.393ZM46.079,23.15h-1.56l0-12.894h1.562V11.52h.037a2.333,2.333,0,0,1,1.212-1.129,4.7,4.7,0,0,1,1.819-.352,4.419,4.419,0,0,1,1.921.4,3.914,3.914,0,0,1,1.36,1.075,4.744,4.744,0,0,1,.817,1.561,6.321,6.321,0,0,1,.275,1.878,6.594,6.594,0,0,1-.266,1.878,4.42,4.42,0,0,1-.808,1.544,3.808,3.808,0,0,1-1.36,1.039,4.716,4.716,0,0,1-2.682.307,4.55,4.55,0,0,1-.855-.235,3.411,3.411,0,0,1-.8-.442,2.5,2.5,0,0,1-.634-.7h-.037v4.8Zm2.848-11.757a2.738,2.738,0,0,0-1.341.307,2.686,2.686,0,0,0-.9.8,3.368,3.368,0,0,0-.506,1.129,5.382,5.382,0,0,0,.01,2.61,3.268,3.268,0,0,0,.523,1.129,2.677,2.677,0,0,0,.928.786,2.918,2.918,0,0,0,1.379.3,2.724,2.724,0,0,0,1.35-.307,2.5,2.5,0,0,0,.873-.813,3.525,3.525,0,0,0,.478-1.156,6.217,6.217,0,0,0,.147-1.336,4.639,4.639,0,0,0-.175-1.273,3.424,3.424,0,0,0-.533-1.111,2.62,2.62,0,0,0-.919-.777A2.843,2.843,0,0,0,48.927,11.393Zm27.359,8.488A7.778,7.778,0,0,1,74.2,19.61a5.142,5.142,0,0,1-1.727-.822A3.928,3.928,0,0,1,71.3,17.38a4.492,4.492,0,0,1-.431-2.032h1.653a2.785,2.785,0,0,0,1.166,2.366,3.541,3.541,0,0,0,1.222.56,5.786,5.786,0,0,0,1.433.181,6.77,6.77,0,0,0,1.185-.109,3.5,3.5,0,0,0,1.075-.37,2.127,2.127,0,0,0,.772-.714,2.085,2.085,0,0,0,.294-1.156,1.606,1.606,0,0,0-.359-1.084,2.643,2.643,0,0,0-.955-.677A7.384,7.384,0,0,0,77,13.921c-.413-.089-.886-.192-1.534-.334-.521-.115-1.038-.248-1.535-.4a5.644,5.644,0,0,1-1.351-.6,2.84,2.84,0,0,1-.955-.957,2.791,2.791,0,0,1-.358-1.472,3.376,3.376,0,0,1,.4-1.688A3.452,3.452,0,0,1,72.749,7.3a4.9,4.9,0,0,1,1.525-.686,6.746,6.746,0,0,1,1.754-.226,7.216,7.216,0,0,1,1.875.235,4.3,4.3,0,0,1,1.516.74,3.619,3.619,0,0,1,1.029,1.274,4.562,4.562,0,0,1,.414,1.833H79.207a2.685,2.685,0,0,0-1.02-2.014,3.767,3.767,0,0,0-2.232-.623,5.5,5.5,0,0,0-1.084.109,2.928,2.928,0,0,0-.946.361,1.914,1.914,0,0,0-.661.677,2.079,2.079,0,0,0-.248,1.057,1.341,1.341,0,0,0,.358.967,2.683,2.683,0,0,0,.956.6,8.333,8.333,0,0,0,1.35.388c.527.108,1.044.221,1.534.334s1.015.258,1.535.425a5.176,5.176,0,0,1,1.35.659,3.385,3.385,0,0,1,.845,4.4,3.843,3.843,0,0,1-1.2,1.192,5.288,5.288,0,0,1-1.644.668A8.219,8.219,0,0,1,76.286,19.881Zm33.147-.09a4.969,4.969,0,0,1-1.976-.362,3.909,3.909,0,0,1-1.406-1.011,4.3,4.3,0,0,1-.854-1.553,7.394,7.394,0,0,1-.321-1.968,5.553,5.553,0,0,1,.33-1.95,4.675,4.675,0,0,1,.928-1.535,4.234,4.234,0,0,1,1.415-1.012,4.415,4.415,0,0,1,1.792-.361,3.968,3.968,0,0,1,2.1.515,4.138,4.138,0,0,1,1.341,1.309,5.129,5.129,0,0,1,.7,1.733,7.357,7.357,0,0,1,.157,1.788h-7.111a3.665,3.665,0,0,0,.147,1.165,2.571,2.571,0,0,0,1.471,1.652,3.3,3.3,0,0,0,1.341.253A2.754,2.754,0,0,0,111.114,18a2.188,2.188,0,0,0,.836-1.372h1.543A3.732,3.732,0,0,1,112.115,19,4.384,4.384,0,0,1,109.433,19.791Zm-.185-8.4a2.767,2.767,0,0,0-1.093.208,2.524,2.524,0,0,0-.836.569,2.727,2.727,0,0,0-.552.84,3.166,3.166,0,0,0-.238,1.021h5.456a3.085,3.085,0,0,0-.247-1.03,2.655,2.655,0,0,0-.57-.84,2.693,2.693,0,0,0-1.921-.768Zm-16.1,8.4a5.037,5.037,0,0,1-1.984-.371,4.053,4.053,0,0,1-1.452-1.03,4.361,4.361,0,0,1-.882-1.543,6.063,6.063,0,0,1-.294-1.914,6.142,6.142,0,0,1,.294-1.923,4.357,4.357,0,0,1,.882-1.553,4.155,4.155,0,0,1,1.452-1.038,5.4,5.4,0,0,1,3.978,0,4.175,4.175,0,0,1,1.442,1.038,4.357,4.357,0,0,1,.882,1.553,6.142,6.142,0,0,1,.294,1.923,6.063,6.063,0,0,1-.294,1.914,4.361,4.361,0,0,1-.882,1.543,4.093,4.093,0,0,1-1.442,1.03A5.03,5.03,0,0,1,93.153,19.791Zm0-8.4a2.867,2.867,0,0,0-1.148.235,2.714,2.714,0,0,0-.947.686,3.274,3.274,0,0,0-.634,1.111,5.069,5.069,0,0,0,0,3.016,3.148,3.148,0,0,0,.634,1.1,2.762,2.762,0,0,0,.947.678,2.922,2.922,0,0,0,2.3,0,2.762,2.762,0,0,0,.947-.678,3.148,3.148,0,0,0,.634-1.1,5.069,5.069,0,0,0,0-3.016,3.274,3.274,0,0,0-.634-1.111,2.714,2.714,0,0,0-.947-.686A2.869,2.869,0,0,0,93.153,11.393Zm-60.1,8.2H31.27L36.378,6.7h1.929L43.432,19.59l-1.928,0L40.071,15.71H34.522l-1.471,3.883ZM37.3,8.251l-2.223,6.014H39.52L37.333,8.251Zm63.813,11.341H99.547V10.256h1.47v1.968h.037a4.2,4.2,0,0,1,1.4-1.679,3.477,3.477,0,0,1,1.937-.509l.158,0v1.625h-.012a4.467,4.467,0,0,0-1.587.252,2.515,2.515,0,0,0-1.066.741,3.043,3.043,0,0,0-.588,1.183,6.269,6.269,0,0,0-.184,1.6v4.153Zm-13.78,0H86.134a5.685,5.685,0,0,1-1.039-.081,1.551,1.551,0,0,1-.7-.3A1.267,1.267,0,0,1,84,18.6a3.487,3.487,0,0,1-.129-1.048V11.61H82.257V10.256h1.617v-2.8h1.562v2.8h1.893V11.61H85.436v5.8a1.614,1.614,0,0,0,.046.433.444.444,0,0,0,.175.253.781.781,0,0,0,.358.118,5.234,5.234,0,0,0,.6.027h.716v1.354ZM10.276,5.657l-.135,0a4.636,4.636,0,0,1,1.048-3.562A5.733,5.733,0,0,1,14.94,0a5.073,5.073,0,0,1-1.264,3.934A4.558,4.558,0,0,1,10.276,5.657Z" transform="translate(12.209 8.571)" fill="#014d97"/>
</svg>
