<svg id="Rectangle_1_Fill_1_google_play" data-name="Rectangle 1 + Fill 1 + google play" xmlns="http://www.w3.org/2000/svg" width="150" height="42.857" viewBox="0 0 150 42.857">
  <g id="Rectangle_1" data-name="Rectangle 1" fill="none" stroke="#014d97" stroke-miterlimit="10" stroke-width="2">
    <rect width="150" height="42.857" rx="10" stroke="none"/>
    <rect x="1" y="1" width="148" height="40.857" rx="9" fill="none"/>
  </g>
  <path id="Fill_1" data-name="Fill 1" d="M40.724,21.479c-3.106,0-4.5-1.494-4.5-2.975a2.975,2.975,0,0,1,1.612-2.537,8.988,8.988,0,0,1,3.96-.952l.035,0-.041-.052a2.094,2.094,0,0,1-.588-1.365,1.7,1.7,0,0,1,.178-.735c.01-.025.02-.05.031-.075l-.026,0-.039,0c-.126.012-.388.038-.6.038a3.3,3.3,0,0,1-3.472-3.268,3.743,3.743,0,0,1,1.34-2.788,5.735,5.735,0,0,1,3.745-1.145H46.67l-1.34.752h-1.3l.006,0a3.529,3.529,0,0,1,1.478,2.805,3.511,3.511,0,0,1-1.755,2.954l-.038.038a1.415,1.415,0,0,0-.548.98,1.129,1.129,0,0,0,.529.884l.015.012.756.581c.9.758,1.756,1.474,1.756,2.914C46.228,19.5,44.337,21.479,40.724,21.479Zm1.342-5.887a8.457,8.457,0,0,0-2.2.333,2.345,2.345,0,0,0-1.8,2.144,2.2,2.2,0,0,0,1,1.822,4.643,4.643,0,0,0,2.678.716c1.9,0,3.074-.861,3.074-2.246,0-1.084-.739-1.656-2.277-2.746A3.214,3.214,0,0,0,42.066,15.592ZM41.039,6.314A1.963,1.963,0,0,0,39.575,7a2.373,2.373,0,0,0-.46,1.536c0,1.292.767,3.7,2.614,3.7a2.143,2.143,0,0,0,1.419-.583,2.115,2.115,0,0,0,.526-1.52C43.674,8.576,42.736,6.314,41.039,6.314ZM89.118,19.282a4.213,4.213,0,0,1-1.058-.141l.182-.971a2.491,2.491,0,0,0,.857.162c.59,0,1.072-.2,1.5-1.192l.772-1.74L87.206,5.558h1.181l3.576,8.528L95.5,5.558h1.2L91.616,17.465A2.59,2.59,0,0,1,89.118,19.282Zm-23.057-.24H65V5.558h1.058V7.093a4.209,4.209,0,0,1,3.412-1.779c2.668,0,4.392,2.007,4.392,5.114a5.626,5.626,0,0,1-1.211,3.734,4.061,4.061,0,0,1-3.181,1.4,4.183,4.183,0,0,1-3.412-1.819v5.3ZM69.295,6.264a4.169,4.169,0,0,0-3.234,1.994v4.316a4.2,4.2,0,0,0,3.234,2.035c2.086,0,3.434-1.642,3.434-4.182S71.38,6.264,69.295,6.264ZM7.452,15.571A7.34,7.34,0,0,1,1.688,13.2,7.257,7.257,0,0,1-.019,8.512,7.1,7.1,0,0,1,2.066,3.445,8.049,8.049,0,0,1,7.9,1.218a11.464,11.464,0,0,1,3,.407A7.561,7.561,0,0,1,13.435,2.8l.059.04L11.865,4.377l-.687.152.49-.776,0,0A5.614,5.614,0,0,0,7.47,1.92,5.414,5.414,0,0,0,2.042,7.673a6.891,6.891,0,0,0,6.94,7.117,5.844,5.844,0,0,0,2.489-.485V11.162L8.51,11.32l1.57-.839h4.156l-.509.487a.449.449,0,0,0-.194.31c-.021.179-.04.748-.04.941V14.6l-2.8.639h-.009A20.579,20.579,0,0,1,7.452,15.571Zm73.814-.09a3.489,3.489,0,0,1-2.4-.764,2.667,2.667,0,0,1-.856-2.079,2.466,2.466,0,0,1,1.242-2.129,5.774,5.774,0,0,1,3.218-.817h2.469V8.48a2.035,2.035,0,0,0-.717-1.646,3.1,3.1,0,0,0-2.026-.6,3.235,3.235,0,0,0-1.939.543,1.66,1.66,0,0,0-.734,1.367H78.439l-.022-.052a2.268,2.268,0,0,1,1.021-1.943,4.481,4.481,0,0,1,2.816-.838,4.422,4.422,0,0,1,2.791.827A2.826,2.826,0,0,1,86.1,8.5v4.814a7.623,7.623,0,0,0,.06,1.006,6.444,6.444,0,0,0,.211.967h-1.22c-.064-.308-.118-.606-.163-.887a5.906,5.906,0,0,1-.05-.76A4.2,4.2,0,0,1,83.4,14.96,4.271,4.271,0,0,1,81.266,15.481Zm1.191-4.954a4.1,4.1,0,0,0-2.348.629,1.825,1.825,0,0,0-.931,1.516,1.684,1.684,0,0,0,.593,1.339,2.416,2.416,0,0,0,1.625.51,4.012,4.012,0,0,0,2.2-.595A3.025,3.025,0,0,0,84.938,12.4V10.527ZM56.31,15.362a4.5,4.5,0,0,1-2.786-.812,5.407,5.407,0,0,1-2.134-4.386A4.587,4.587,0,0,1,52.98,6.551a4.991,4.991,0,0,1,3.2-1.194,4.092,4.092,0,0,1,2.155.583A3.475,3.475,0,0,1,59.8,7.981L59.8,8,54.887,9.975l-1.611.124c.493,2.5,2.224,4.183,4.308,4.183a5.2,5.2,0,0,0,2.407-.654l.01,0a.175.175,0,0,1,.057-.021s.006,0,.007,0-.015.028-.034.047l-1,.94-.233.132-.014.008c-.186.106-.308.174-.443.237A4.877,4.877,0,0,1,56.31,15.362ZM55.6,6.044a2.578,2.578,0,0,0-2.4,2.9c0,.214.016.431.033.662l0,.04v.017l0,.035,0,.058c.007.093.014.189.02.287l3.808-1.644c.4-.145.607-.271.607-.558A2.078,2.078,0,0,0,55.6,6.044ZM31.059,15.319a4.919,4.919,0,0,1-5.1-4.907,4.9,4.9,0,0,1,1.516-3.55,5.568,5.568,0,0,1,3.9-1.506,4.88,4.88,0,0,1,5,4.909A5.08,5.08,0,0,1,35,13.713,5.228,5.228,0,0,1,31.059,15.319ZM30.832,6a2.949,2.949,0,0,0-1.886.706,3.142,3.142,0,0,0-.963,2.541,8.111,8.111,0,0,0,.828,3.494,3.161,3.161,0,0,0,2.73,1.951,2.664,2.664,0,0,0,2.135-1.058,3.656,3.656,0,0,0,.629-2.307C34.3,9.591,33.456,6,30.832,6ZM19.926,15.319a4.916,4.916,0,0,1-5.1-4.907,4.9,4.9,0,0,1,1.516-3.55,5.562,5.562,0,0,1,3.9-1.506,4.879,4.879,0,0,1,5,4.909,5.08,5.08,0,0,1-1.377,3.448A5.227,5.227,0,0,1,19.926,15.319ZM19.7,6a2.906,2.906,0,0,0-1.882.706,3.14,3.14,0,0,0-.964,2.541,8.087,8.087,0,0,0,.83,3.494,3.16,3.16,0,0,0,2.728,1.951,2.665,2.665,0,0,0,2.133-1.058,3.669,3.669,0,0,0,.627-2.307C23.17,9.591,22.321,6,19.7,6Zm56.67,9.315H75.31V1.834h1.057V15.317Zm-25.492-.267H47.189l.008-.011.007-.009c.039-.05.073-.094.105-.134l.008-.011c.371-.476.437-.562.437-.938v-.464l-.008-12.37H46.12L47.687.365h2.992a1.43,1.43,0,0,0-.925,1.328l-.005,11.8c0,.829.168.935.832,1,.185.021.374.037.518.049.19.016.375.032.551.053l-.774.458Z" transform="translate(39.312 12)" fill="#014d97"/>
  <path id="google_play" data-name="google play" d="M.565,18.828h0A.872.872,0,0,1,0,17.89V.914A.9.9,0,0,1,.485,0L8.973,9.461.563,18.826Zm1.173-.361,0,0h0L9.459,10l2.489,2.774L1.737,18.464ZM12.6,12.411h0L9.962,9.451l2.74-3,3.946,2.2a.921.921,0,0,1,.563.754.921.921,0,0,1-.563.754L12.6,12.411ZM9.473,8.9h0L1.943.456,12.018,6.07,9.474,8.9Z" transform="translate(13.081 12.171)" fill="#014d97"/>
</svg>
